{
  "source": "C:\\Users\\Peter\\Desktop\\stuff\\MIUN\\quantitative_research\\video_compression\\videos\\HEVC_CLASS_B\\BasketballDrive_1920x1080_50.y4m",
  "output": "C:\\Users\\Peter\\Desktop\\stuff\\MIUN\\quantitative_research\\video_compression\\compressed_videos\\HEVC_CLASS_B\\vp9\\8\\BasketballDrive_1920x1080_50_vp9.webm",
  "codec": "vp9",
  "ok": "Input #0, yuv4mpegpipe, from 'C:\\Users\\Peter\\Desktop\\stuff\\MIUN\\quantitative_research\\video_compression\\videos\\HEVC_CLASS_B\\BasketballDrive_1920x1080_50.y4m':\n  Duration: 00:00:10.00, start: 0.000000, bitrate: 1244162 kb/s\n  Stream #0:0: Video: rawvideo (I420 / 0x30323449), yuv420p(progressive), 1920x1080, 50 fps, 50 tbr, 50 tbn\n[out#0/webm @ 0000018455419b80] Codec AVOption b:a (set bitrate (in bits/s)) has not been used for any stream. The most likely reason is either wrong type (e.g. a video option with no video streams) or that it is a private option of some decoder which was not actually used for any stream.\nStream mapping:\n  Stream #0:0 -> #0:0 (rawvideo (native) -> vp9 (libvpx-vp9))\nPress [q] to stop, [?] for help\n[libvpx-vp9 @ 000001845541bfc0] v1.15.2-100-g40561f514\nOutput #0, webm, to 'C:\\Users\\Peter\\Desktop\\stuff\\MIUN\\quantitative_research\\video_compression\\compressed_videos\\HEVC_CLASS_B\\vp9\\8\\BasketballDrive_1920x1080_50_vp9.webm':\n  Metadata:\n    encoder         : Lavf62.3.100\n  Stream #0:0: Video: vp9, yuv420p(tv, progressive), 1920x1080, q=2-31, 8000 kb/s, 50 fps, 1k tbn\n    Metadata:\n      encoder         : Lavc62.11.100 libvpx-vp9\n    Side data:\n      cpb: bitrate max/min/avg: 0/0/0 buffer size: 8000000 vbv_delay: N/A\nframe=    0 fps=0.0 q=0.0 size=       0KiB time=N/A bitrate=N/A speed=N/A elapsed=0:00:00.55    \nframe=    0 fps=0.0 q=0.0 size=       0KiB time=N/A bitrate=N/A speed=N/A elapsed=0:00:01.85    \nframe=    3 fps=1.3 q=45.0 size=       0KiB time=00:00:00.04 bitrate=  96.4kbits/s speed=0.0167x elapsed=0:00:02.39    \nframe=    5 fps=1.7 q=42.0 size=       0KiB time=00:00:00.10 bitrate=  38.6kbits/s speed=0.0333x elapsed=0:00:03.00    \nframe=    8 fps=2.2 q=39.0 size=       0KiB time=00:00:00.16 bitrate=  24.1kbits/s speed=0.0449x elapsed=0:00:03.55    \nframe=   11 fps=2.7 q=38.0 size=       0KiB time=00:00:00.20 bitrate=  19.3kbits/s speed=0.0487x elapsed=0:00:04.11    \nframe=   13 fps=2.7 q=37.0 size=       0KiB time=00:00:00.26 bitrate=  14.8kbits/s speed=0.0541x elapsed=0:00:04.80    \nframe=   16 fps=2.9 q=35.0 size=       0KiB time=00:00:00.32 bitrate=  12.1kbits/s speed=0.0581x elapsed=0:00:05.50    \nframe=   18 fps=2.9 q=35.0 size=       0KiB time=00:00:00.36 bitrate=  10.7kbits/s speed=0.0585x elapsed=0:00:06.15    \nframe=   22 fps=3.2 q=35.0 size=       0KiB time=00:00:00.42 bitrate=   9.2kbits/s speed=0.061x elapsed=0:00:06.89    \nframe=   22 fps=2.8 q=35.0 size=       0KiB time=00:00:00.44 bitrate=   8.8kbits/s speed=0.057x elapsed=0:00:07.72    \nframe=   24 fps=2.9 q=36.0 size=       0KiB time=00:00:00.48 bitrate=   8.0kbits/s speed=0.0581x elapsed=0:00:08.26    \nframe=   27 fps=3.0 q=36.0 size=       0KiB time=00:00:00.52 bitrate=   7.4kbits/s speed=0.0584x elapsed=0:00:08.89    \nframe=   30 fps=3.1 q=38.0 size=       0KiB time=00:00:00.58 bitrate=   6.6kbits/s speed=0.0604x elapsed=0:00:09.59    \nframe=   32 fps=3.1 q=38.0 size=       0KiB time=00:00:00.64 bitrate=   6.0kbits/s speed=0.0624x elapsed=0:00:10.26    \nframe=   33 fps=3.0 q=38.0 size=       0KiB time=00:00:00.66 bitrate=   5.8kbits/s speed=0.0608x elapsed=0:00:10.85    \nframe=   35 fps=3.0 q=36.0 size=       0KiB time=00:00:00.70 bitrate=   5.5kbits/s speed=0.0607x elapsed=0:00:11.53    \nframe=   38 fps=3.1 q=37.0 size=       0KiB time=00:00:00.74 bitrate=   5.2kbits/s speed=0.0605x elapsed=0:00:12.23    \nframe=   40 fps=3.1 q=37.0 size=       0KiB time=00:00:00.80 bitrate=   4.8kbits/s speed=0.0621x elapsed=0:00:12.88    \nframe=   42 fps=3.1 q=38.0 size=       0KiB time=00:00:00.84 bitrate=   4.6kbits/s speed=0.0621x elapsed=0:00:13.51    \nframe=   44 fps=3.1 q=38.0 size=       0KiB time=00:00:00.88 bitrate=   4.4kbits/s speed=0.0623x elapsed=0:00:14.13    \nframe=   45 fps=3.0 q=22.0 size=       0KiB time=00:00:00.90 bitrate=   4.3kbits/s speed=0.0606x elapsed=0:00:14.85    \nframe=   47 fps=3.0 q=39.0 size=       0KiB time=00:00:00.94 bitrate=   4.1kbits/s speed=0.0609x elapsed=0:00:15.42    \nframe=   49 fps=3.1 q=39.0 size=       0KiB time=00:00:00.98 bitrate=   3.9kbits/s speed=0.0613x elapsed=0:00:15.99    \nframe=   51 fps=3.1 q=39.0 size=       0KiB time=00:00:01.02 bitrate=   3.8kbits/s speed=0.0612x elapsed=0:00:16.67    \nframe=   53 fps=3.0 q=40.0 size=       0KiB time=00:00:01.06 bitrate=   3.6kbits/s speed=0.061x elapsed=0:00:17.38    \nframe=   55 fps=3.1 q=40.0 size=       0KiB time=00:00:01.10 bitrate=   3.5kbits/s speed=0.061x elapsed=0:00:18.03    \nframe=   56 fps=3.0 q=24.0 size=       0KiB time=00:00:01.12 bitrate=   3.4kbits/s speed=0.0597x elapsed=0:00:18.75    \nframe=   59 fps=3.0 q=40.0 size=       0KiB time=00:00:01.16 bitrate=   3.3kbits/s speed=0.0599x elapsed=0:00:19.36    \nframe=   60 fps=3.0 q=40.0 size=       0KiB time=00:00:01.20 bitrate=   3.2kbits/s speed=0.06x elapsed=0:00:19.99    \nframe=   62 fps=3.0 q=41.0 size=       0KiB time=00:00:01.24 bitrate=   3.1kbits/s speed=0.0602x elapsed=0:00:20.59    \nframe=   64 fps=3.0 q=41.0 size=       0KiB time=00:00:01.28 bitrate=   3.0kbits/s speed=0.0601x elapsed=0:00:21.28    \nframe=   66 fps=3.0 q=41.0 size=       0KiB time=00:00:01.32 bitrate=   2.9kbits/s speed=0.0604x elapsed=0:00:21.85    \nframe=   67 fps=3.0 q=29.0 size=       0KiB time=00:00:01.34 bitrate=   2.9kbits/s speed=0.0594x elapsed=0:00:22.54    \nframe=   69 fps=3.0 q=41.0 size=       0KiB time=00:00:01.36 bitrate=   2.8kbits/s speed=0.0588x elapsed=0:00:23.12    \nframe=   71 fps=3.0 q=42.0 size=       0KiB time=00:00:01.42 bitrate=   2.7kbits/s speed=0.0595x elapsed=0:00:23.85    \nframe=   72 fps=2.9 q=42.0 size=       0KiB time=00:00:01.44 bitrate=   2.7kbits/s speed=0.0587x elapsed=0:00:24.51    \nframe=   74 fps=2.9 q=41.0 size=       0KiB time=00:00:01.48 bitrate=   2.6kbits/s speed=0.0588x elapsed=0:00:25.15    \nframe=   76 fps=3.0 q=40.0 size=       0KiB time=00:00:01.52 bitrate=   2.5kbits/s speed=0.0591x elapsed=0:00:25.73    \nframe=   78 fps=3.0 q=40.0 size=       0KiB time=00:00:01.56 bitrate=   2.5kbits/s speed=0.059x elapsed=0:00:26.42    \nframe=   80 fps=3.0 q=40.0 size=       0KiB time=00:00:01.60 bitrate=   2.4kbits/s speed=0.0594x elapsed=0:00:26.92    \nframe=   82 fps=3.0 q=40.0 size=       0KiB time=00:00:01.64 bitrate=   2.4kbits/s speed=0.0593x elapsed=0:00:27.65    \nframe=   83 fps=2.9 q=41.0 size=       0KiB time=00:00:01.66 bitrate=   2.3kbits/s speed=0.0586x elapsed=0:00:28.30    \nframe=   86 fps=3.0 q=41.0 size=       0KiB time=00:00:01.70 bitrate=   2.3kbits/s speed=0.0589x elapsed=0:00:28.84    \nframe=   87 fps=3.0 q=41.0 size=       0KiB time=00:00:01.74 bitrate=   2.2kbits/s speed=0.0591x elapsed=0:00:29.43    \nframe=   89 fps=3.0 q=40.0 size=       0KiB time=00:00:01.78 bitrate=   2.2kbits/s speed=0.0592x elapsed=0:00:30.08    \nframe=   91 fps=3.0 q=40.0 size=       0KiB time=00:00:01.82 bitrate=   2.1kbits/s speed=0.0592x elapsed=0:00:30.76    \nframe=   93 fps=3.0 q=39.0 size=       0KiB time=00:00:01.86 bitrate=   2.1kbits/s speed=0.0592x elapsed=0:00:31.44    \nframe=   95 fps=3.0 q=40.0 size=       0KiB time=00:00:01.90 bitrate=   2.0kbits/s speed=0.0594x elapsed=0:00:31.98    \nframe=   95 fps=2.9 q=40.0 size=       0KiB time=00:00:01.90 bitrate=   2.0kbits/s speed=0.0582x elapsed=0:00:32.65    \nframe=   98 fps=2.9 q=44.0 size=       0KiB time=00:00:01.96 bitrate=   2.0kbits/s speed=0.0589x elapsed=0:00:33.29    \nframe=  101 fps=3.0 q=44.0 size=       0KiB time=00:00:02.02 bitrate=   1.9kbits/s speed=0.0596x elapsed=0:00:33.91    \nframe=  103 fps=3.0 q=44.0 size=       0KiB time=00:00:02.06 bitrate=   1.9kbits/s speed=0.0597x elapsed=0:00:34.51    \nframe=  105 fps=3.0 q=44.0 size=       0KiB time=00:00:02.10 bitrate=   1.8kbits/s speed=0.0599x elapsed=0:00:35.06    \nframe=  106 fps=3.0 q=44.0 size=       0KiB time=00:00:02.12 bitrate=   1.8kbits/s speed=0.0596x elapsed=0:00:35.58    \nframe=  108 fps=3.0 q=39.0 size=       0KiB time=00:00:02.16 bitrate=   1.8kbits/s speed=0.0597x elapsed=0:00:36.18    \nframe=  110 fps=3.0 q=39.0 size=       0KiB time=00:00:02.20 bitrate=   1.8kbits/s speed=0.0599x elapsed=0:00:36.74    \nframe=  112 fps=3.0 q=39.0 size=       0KiB time=00:00:02.22 bitrate=   1.7kbits/s speed=0.0595x elapsed=0:00:37.32    \nframe=  114 fps=3.0 q=39.0 size=       0KiB time=00:00:02.28 bitrate=   1.7kbits/s speed=0.0598x elapsed=0:00:38.09    \nframe=  116 fps=3.0 q=39.0 size=       0KiB time=00:00:02.32 bitrate=   1.7kbits/s speed=0.0598x elapsed=0:00:38.77    \nframe=  117 fps=3.0 q=38.0 size=       0KiB time=00:00:02.34 bitrate=   1.6kbits/s speed=0.0594x elapsed=0:00:39.38    \nframe=  119 fps=3.0 q=44.0 size=       0KiB time=00:00:02.36 bitrate=   1.6kbits/s speed=0.0589x elapsed=0:00:40.07    \nframe=  121 fps=3.0 q=43.0 size=       0KiB time=00:00:02.42 bitrate=   1.6kbits/s speed=0.0594x elapsed=0:00:40.74    \nframe=  123 fps=3.0 q=43.0 size=       0KiB time=00:00:02.46 bitrate=   1.6kbits/s speed=0.0594x elapsed=0:00:41.44    \nframe=  126 fps=3.0 q=44.0 size=       0KiB time=00:00:02.52 bitrate=   1.5kbits/s speed=0.0598x elapsed=0:00:42.13    \nframe=  128 fps=3.0 q=44.0 size=       0KiB time=00:00:02.56 bitrate=   1.5kbits/s speed=0.0598x elapsed=0:00:42.81    \nframe=  130 fps=3.0 q=39.0 size=    2304KiB time=00:00:02.58 bitrate=7315.6kbits/s speed=0.0593x elapsed=0:00:43.53    \nframe=  132 fps=3.0 q=38.0 size=    2304KiB time=00:00:02.64 bitrate=7149.4kbits/s speed=0.0598x elapsed=0:00:44.11    \nframe=  135 fps=3.0 q=38.0 size=    2304KiB time=00:00:02.70 bitrate=6990.5kbits/s speed=0.0602x elapsed=0:00:44.82    \nframe=  138 fps=3.0 q=38.0 size=    2304KiB time=00:00:02.74 bitrate=6888.5kbits/s speed=0.0603x elapsed=0:00:45.46    \nframe=  139 fps=3.0 q=38.0 size=    2304KiB time=00:00:02.78 bitrate=6789.3kbits/s speed=0.0601x elapsed=0:00:46.22    \nframe=  142 fps=3.0 q=37.0 size=    2304KiB time=00:00:02.82 bitrate=6693.0kbits/s speed=0.0602x elapsed=0:00:46.82    \nframe=  144 fps=3.0 q=38.0 size=    2304KiB time=00:00:02.88 bitrate=6553.6kbits/s speed=0.0607x elapsed=0:00:47.43    \nframe=  146 fps=3.0 q=39.0 size=    2304KiB time=00:00:02.92 bitrate=6463.8kbits/s speed=0.0607x elapsed=0:00:48.06    \nframe=  148 fps=3.0 q=40.0 size=    2304KiB time=00:00:02.96 bitrate=6376.5kbits/s speed=0.0607x elapsed=0:00:48.76    \nframe=  150 fps=3.0 q=41.0 size=    2304KiB time=00:00:03.00 bitrate=6291.5kbits/s speed=0.0607x elapsed=0:00:49.39    \nframe=  152 fps=3.0 q=42.0 size=    2304KiB time=00:00:03.02 bitrate=6249.8kbits/s speed=0.0603x elapsed=0:00:50.09    \nframe=  154 fps=3.0 q=42.0 size=    2304KiB time=00:00:03.08 bitrate=6128.0kbits/s speed=0.0607x elapsed=0:00:50.73    \nframe=  156 fps=3.0 q=42.0 size=    2304KiB time=00:00:03.12 bitrate=6049.5kbits/s speed=0.0607x elapsed=0:00:51.39    \nframe=  157 fps=3.0 q=26.0 size=    2304KiB time=00:00:03.12 bitrate=6049.5kbits/s speed=0.0599x elapsed=0:00:52.08    \nframe=  160 fps=3.0 q=40.0 size=    2304KiB time=00:00:03.18 bitrate=5935.3kbits/s speed=0.0603x elapsed=0:00:52.74    \nframe=  162 fps=3.0 q=40.0 size=    2304KiB time=00:00:03.22 bitrate=5861.6kbits/s speed=0.0602x elapsed=0:00:53.45    \nframe=  164 fps=3.0 q=40.0 size=    2304KiB time=00:00:03.28 bitrate=5754.4kbits/s speed=0.0605x elapsed=0:00:54.17    \nframe=  166 fps=3.0 q=40.0 size=    2304KiB time=00:00:03.32 bitrate=5685.1kbits/s speed=0.0605x elapsed=0:00:54.88    \nframe=  167 fps=3.0 q=40.0 size=    2304KiB time=00:00:03.34 bitrate=5651.0kbits/s speed=0.0601x elapsed=0:00:55.55    \nframe=  169 fps=3.0 q=41.0 size=    2304KiB time=00:00:03.38 bitrate=5584.1kbits/s speed=0.0602x elapsed=0:00:56.18    \nframe=  171 fps=3.0 q=40.0 size=    2304KiB time=00:00:03.42 bitrate=5518.8kbits/s speed=0.0602x elapsed=0:00:56.78    \nframe=  173 fps=3.0 q=40.0 size=    2304KiB time=00:00:03.46 bitrate=5455.0kbits/s speed=0.0604x elapsed=0:00:57.32    \nframe=  175 fps=3.0 q=40.0 size=    2304KiB time=00:00:03.50 bitrate=5392.7kbits/s speed=0.0605x elapsed=0:00:57.84    \nframe=  178 fps=3.0 q=40.0 size=    2304KiB time=00:00:03.54 bitrate=5331.7kbits/s speed=0.0606x elapsed=0:00:58.37    \nframe=  178 fps=3.0 q=40.0 size=    2304KiB time=00:00:03.56 bitrate=5301.8kbits/s speed=0.0604x elapsed=0:00:58.97    \nframe=  181 fps=3.0 q=40.0 size=    2304KiB time=00:00:03.60 bitrate=5242.9kbits/s speed=0.0604x elapsed=0:00:59.62    \nframe=  183 fps=3.0 q=39.0 size=    2304KiB time=00:00:03.66 bitrate=5156.9kbits/s speed=0.0607x elapsed=0:01:00.26    \nframe=  185 fps=3.0 q=39.0 size=    2304KiB time=00:00:03.70 bitrate=5101.2kbits/s speed=0.0607x elapsed=0:01:00.97    \nframe=  188 fps=3.1 q=40.0 size=    2304KiB time=00:00:03.74 bitrate=5046.6kbits/s speed=0.0608x elapsed=0:01:01.53    \nframe=  189 fps=3.0 q=40.0 size=    2304KiB time=00:00:03.78 bitrate=4993.2kbits/s speed=0.0607x elapsed=0:01:02.24    \nframe=  189 fps=3.0 q=40.0 size=    2304KiB time=00:00:03.78 bitrate=4993.2kbits/s speed=0.06x elapsed=0:01:02.98    \nframe=  191 fps=3.0 q=40.0 size=    2304KiB time=00:00:03.82 bitrate=4940.9kbits/s speed=0.0601x elapsed=0:01:03.60    \nframe=  193 fps=3.0 q=39.0 size=    2304KiB time=00:00:03.86 bitrate=4889.7kbits/s speed=0.0601x elapsed=0:01:04.18    \nframe=  195 fps=3.0 q=39.0 size=    2304KiB time=00:00:03.90 bitrate=4839.6kbits/s speed=0.0601x elapsed=0:01:04.88    \nframe=  197 fps=3.0 q=39.0 size=    2304KiB time=00:00:03.94 bitrate=4790.4kbits/s speed=0.0602x elapsed=0:01:05.43    \nframe=  199 fps=3.0 q=40.0 size=    2304KiB time=00:00:03.98 bitrate=4742.3kbits/s speed=0.0603x elapsed=0:01:06.04    \nframe=  200 fps=3.0 q=40.0 size=    2304KiB time=00:00:04.00 bitrate=4718.6kbits/s speed=0.06x elapsed=0:01:06.61    \nframe=  201 fps=3.0 q=24.0 size=    2304KiB time=00:00:04.02 bitrate=4695.1kbits/s speed=0.0598x elapsed=0:01:07.26    \nframe=  203 fps=3.0 q=38.0 size=    2304KiB time=00:00:04.06 bitrate=4648.9kbits/s speed=0.0599x elapsed=0:01:07.80    \nframe=  204 fps=3.0 q=38.0 size=    2304KiB time=00:00:04.08 bitrate=4626.1kbits/s speed=0.0597x elapsed=0:01:08.33    \nframe=  206 fps=3.0 q=39.0 size=    2304KiB time=00:00:04.12 bitrate=4581.2kbits/s speed=0.0599x elapsed=0:01:08.83    \nframe=  208 fps=3.0 q=39.0 size=    2304KiB time=00:00:04.16 bitrate=4537.1kbits/s speed=0.06x elapsed=0:01:09.38    \nframe=  210 fps=3.0 q=40.0 size=    2304KiB time=00:00:04.20 bitrate=4493.9kbits/s speed=0.06x elapsed=0:01:10.02    \nframe=  211 fps=3.0 q=40.0 size=    2304KiB time=00:00:04.22 bitrate=4472.6kbits/s speed=0.0598x elapsed=0:01:10.60    \nframe=  214 fps=3.0 q=40.0 size=    2304KiB time=00:00:04.28 bitrate=4409.9kbits/s speed=0.0602x elapsed=0:01:11.15    \nframe=  215 fps=3.0 q=40.0 size=    2304KiB time=00:00:04.30 bitrate=4389.4kbits/s speed=0.06x elapsed=0:01:11.66    \nframe=  217 fps=3.0 q=41.0 size=    2304KiB time=00:00:04.34 bitrate=4348.9kbits/s speed=0.0601x elapsed=0:01:12.21    \nframe=  219 fps=3.0 q=41.0 size=    2304KiB time=00:00:04.38 bitrate=4309.2kbits/s speed=0.0602x elapsed=0:01:12.78    \nframe=  221 fps=3.0 q=40.0 size=    2304KiB time=00:00:04.42 bitrate=4270.2kbits/s speed=0.0603x elapsed=0:01:13.35    \nframe=  223 fps=3.0 q=39.0 size=    2304KiB time=00:00:04.46 bitrate=4231.9kbits/s speed=0.0604x elapsed=0:01:13.89    \nframe=  225 fps=3.0 q=39.0 size=    2304KiB time=00:00:04.48 bitrate=4213.0kbits/s speed=0.0602x elapsed=0:01:14.44    \nframe=  228 fps=3.0 q=37.0 size=    2304KiB time=00:00:04.56 bitrate=4139.1kbits/s speed=0.0608x elapsed=0:01:15.04    \nframe=  229 fps=3.0 q=37.0 size=    2304KiB time=00:00:04.58 bitrate=4121.0kbits/s speed=0.0606x elapsed=0:01:15.62    \nframe=  231 fps=3.0 q=41.0 size=    2304KiB time=00:00:04.62 bitrate=4085.4kbits/s speed=0.0607x elapsed=0:01:16.15    \nframe=  234 fps=3.0 q=39.0 size=    2304KiB time=00:00:04.68 bitrate=4033.0kbits/s speed=0.061x elapsed=0:01:16.72    \nframe=  236 fps=3.1 q=39.0 size=    2304KiB time=00:00:04.72 bitrate=3998.8kbits/s speed=0.0611x elapsed=0:01:17.24    \nframe=  238 fps=3.1 q=40.0 size=    2304KiB time=00:00:04.76 bitrate=3965.2kbits/s speed=0.0612x elapsed=0:01:17.78    \nframe=  240 fps=3.1 q=41.0 size=    2304KiB time=00:00:04.80 bitrate=3932.2kbits/s speed=0.0613x elapsed=0:01:18.29    \nframe=  242 fps=3.1 q=37.0 size=    2304KiB time=00:00:04.84 bitrate=3899.7kbits/s speed=0.0614x elapsed=0:01:18.84    \nframe=  245 fps=3.1 q=38.0 size=    2304KiB time=00:00:04.90 bitrate=3851.9kbits/s speed=0.0617x elapsed=0:01:19.38    \nframe=  247 fps=3.1 q=39.0 size=    2304KiB time=00:00:04.94 bitrate=3820.7kbits/s speed=0.0618x elapsed=0:01:19.90    \nframe=  248 fps=3.1 q=39.0 size=    2304KiB time=00:00:04.96 bitrate=3805.3kbits/s speed=0.0617x elapsed=0:01:20.41    \nframe=  250 fps=3.1 q=39.0 size=    2304KiB time=00:00:05.00 bitrate=3774.9kbits/s speed=0.0618x elapsed=0:01:20.95    \nframe=  253 fps=3.1 q=39.0 size=    2304KiB time=00:00:05.06 bitrate=3730.1kbits/s speed=0.0621x elapsed=0:01:21.49    \nframe=  255 fps=3.1 q=39.0 size=    2304KiB time=00:00:05.10 bitrate=3700.9kbits/s speed=0.0622x elapsed=0:01:22.03    \nframe=  256 fps=3.1 q=39.0 size=    2304KiB time=00:00:05.12 bitrate=3686.4kbits/s speed=0.062x elapsed=0:01:22.54    \nframe=  258 fps=3.1 q=37.0 size=    5120KiB time=00:00:05.16 bitrate=8128.5kbits/s speed=0.0621x elapsed=0:01:23.08    \nframe=  261 fps=3.1 q=37.0 size=    5120KiB time=00:00:05.22 bitrate=8035.1kbits/s speed=0.0624x elapsed=0:01:23.60    \nframe=  263 fps=3.1 q=37.0 size=    5120KiB time=00:00:05.26 bitrate=7974.0kbits/s speed=0.0625x elapsed=0:01:24.13    \nframe=  266 fps=3.1 q=37.0 size=    5120KiB time=00:00:05.32 bitrate=7884.0kbits/s speed=0.0628x elapsed=0:01:24.67    \nframe=  267 fps=3.1 q=37.0 size=    5120KiB time=00:00:05.34 bitrate=7854.5kbits/s speed=0.0627x elapsed=0:01:25.19    \nframe=  269 fps=3.1 q=37.0 size=    5120KiB time=00:00:05.38 bitrate=7796.1kbits/s speed=0.0627x elapsed=0:01:25.74    \nframe=  272 fps=3.2 q=36.0 size=    5120KiB time=00:00:05.44 bitrate=7710.1kbits/s speed=0.0631x elapsed=0:01:26.27    \nframe=  274 fps=3.2 q=35.0 size=    5120KiB time=00:00:05.48 bitrate=7653.8kbits/s speed=0.0631x elapsed=0:01:26.79    \nframe=  277 fps=3.2 q=35.0 size=    5120KiB time=00:00:05.54 bitrate=7570.9kbits/s speed=0.0634x elapsed=0:01:27.33    \nframe=  278 fps=3.2 q=35.0 size=    5120KiB time=00:00:05.56 bitrate=7543.7kbits/s speed=0.0633x elapsed=0:01:27.89    \nframe=  280 fps=3.2 q=36.0 size=    5120KiB time=00:00:05.60 bitrate=7489.8kbits/s speed=0.0633x elapsed=0:01:28.45    \nframe=  283 fps=3.2 q=37.0 size=    5120KiB time=00:00:05.66 bitrate=7410.4kbits/s speed=0.0636x elapsed=0:01:28.97    \nframe=  285 fps=3.2 q=38.0 size=    5120KiB time=00:00:05.70 bitrate=7358.4kbits/s speed=0.0637x elapsed=0:01:29.53    \nframe=  288 fps=3.2 q=38.0 size=    5120KiB time=00:00:05.76 bitrate=7281.8kbits/s speed=0.0639x elapsed=0:01:30.12    \nframe=  289 fps=3.2 q=39.0 size=    5120KiB time=00:00:05.78 bitrate=7256.6kbits/s speed=0.0637x elapsed=0:01:30.71    \nframe=  292 fps=3.2 q=38.0 size=    5120KiB time=00:00:05.84 bitrate=7182.0kbits/s speed=0.064x elapsed=0:01:31.25    \nframe=  294 fps=3.2 q=38.0 size=    5120KiB time=00:00:05.88 bitrate=7133.2kbits/s speed=0.064x elapsed=0:01:31.82    \nframe=  297 fps=3.2 q=39.0 size=    5120KiB time=00:00:05.94 bitrate=7061.1kbits/s speed=0.0643x elapsed=0:01:32.38    \nframe=  299 fps=3.2 q=40.0 size=    5120KiB time=00:00:05.98 bitrate=7013.9kbits/s speed=0.0643x elapsed=0:01:32.93    \nframe=  300 fps=3.2 q=41.0 size=    5120KiB time=00:00:06.00 bitrate=6990.5kbits/s speed=0.0642x elapsed=0:01:33.52    \nframe=  303 fps=3.2 q=41.0 size=    5120KiB time=00:00:06.04 bitrate=6944.2kbits/s speed=0.0642x elapsed=0:01:34.12    \nframe=  305 fps=3.2 q=42.0 size=    5120KiB time=00:00:06.10 bitrate=6875.9kbits/s speed=0.0644x elapsed=0:01:34.78    \nframe=  308 fps=3.2 q=42.0 size=    5120KiB time=00:00:06.16 bitrate=6808.9kbits/s speed=0.0646x elapsed=0:01:35.32    \nframe=  310 fps=3.2 q=41.0 size=    5120KiB time=00:00:06.20 bitrate=6765.0kbits/s speed=0.0647x elapsed=0:01:35.86    \nframe=  311 fps=3.2 q=41.0 size=    5120KiB time=00:00:06.22 bitrate=6743.3kbits/s speed=0.0645x elapsed=0:01:36.37    \nframe=  314 fps=3.2 q=43.0 size=    5120KiB time=00:00:06.28 bitrate=6678.8kbits/s speed=0.0648x elapsed=0:01:36.89    \nframe=  317 fps=3.3 q=42.0 size=    5120KiB time=00:00:06.34 bitrate=6615.6kbits/s speed=0.0651x elapsed=0:01:37.40    \nframe=  320 fps=3.3 q=42.0 size=    5120KiB time=00:00:06.40 bitrate=6553.6kbits/s speed=0.0653x elapsed=0:01:37.93    \nframe=  322 fps=3.3 q=42.0 size=    5120KiB time=00:00:06.44 bitrate=6512.9kbits/s speed=0.0654x elapsed=0:01:38.45    \nframe=  322 fps=3.3 q=42.0 size=    5120KiB time=00:00:06.44 bitrate=6512.9kbits/s speed=0.0651x elapsed=0:01:38.97    \nframe=  324 fps=3.3 q=41.0 size=    5120KiB time=00:00:06.48 bitrate=6472.7kbits/s speed=0.0651x elapsed=0:01:39.51    \nframe=  326 fps=3.3 q=42.0 size=    5120KiB time=00:00:06.52 bitrate=6433.0kbits/s speed=0.0651x elapsed=0:01:40.08    \nframe=  328 fps=3.3 q=42.0 size=    5120KiB time=00:00:06.56 bitrate=6393.8kbits/s speed=0.0652x elapsed=0:01:40.64    \nframe=  330 fps=3.3 q=42.0 size=    5120KiB time=00:00:06.60 bitrate=6355.0kbits/s speed=0.0652x elapsed=0:01:41.21    \nframe=  332 fps=3.3 q=41.0 size=    5120KiB time=00:00:06.64 bitrate=6316.7kbits/s speed=0.0653x elapsed=0:01:41.74    \nframe=  333 fps=3.3 q=41.0 size=    5120KiB time=00:00:06.66 bitrate=6297.8kbits/s speed=0.0651x elapsed=0:01:42.25    \nframe=  336 fps=3.3 q=38.0 size=    5120KiB time=00:00:06.72 bitrate=6241.5kbits/s speed=0.0653x elapsed=0:01:42.84    \nframe=  338 fps=3.3 q=38.0 size=    5120KiB time=00:00:06.76 bitrate=6204.6kbits/s speed=0.0654x elapsed=0:01:43.42    \nframe=  340 fps=3.3 q=28.0 size=    5120KiB time=00:00:06.80 bitrate=6168.1kbits/s speed=0.0654x elapsed=0:01:43.95    \nframe=  342 fps=3.3 q=36.0 size=    5120KiB time=00:00:06.84 bitrate=6132.0kbits/s speed=0.0655x elapsed=0:01:44.49    \nframe=  345 fps=3.3 q=36.0 size=    5120KiB time=00:00:06.88 bitrate=6096.4kbits/s speed=0.0655x elapsed=0:01:45.03    \nframe=  345 fps=3.3 q=36.0 size=    5120KiB time=00:00:06.90 bitrate=6078.7kbits/s speed=0.0653x elapsed=0:01:45.66    \nframe=  347 fps=3.3 q=40.0 size=    5120KiB time=00:00:06.92 bitrate=6061.1kbits/s speed=0.0651x elapsed=0:01:46.26    \nframe=  349 fps=3.3 q=38.0 size=    5120KiB time=00:00:06.98 bitrate=6009.0kbits/s speed=0.0653x elapsed=0:01:46.83    \nframe=  352 fps=3.3 q=38.0 size=    5120KiB time=00:00:07.02 bitrate=5974.8kbits/s speed=0.0654x elapsed=0:01:47.38    \nframe=  355 fps=3.3 q=38.0 size=    5120KiB time=00:00:07.10 bitrate=5907.5kbits/s speed=0.0657x elapsed=0:01:48.05    \nframe=  356 fps=3.3 q=38.0 size=    5120KiB time=00:00:07.12 bitrate=5890.9kbits/s speed=0.0655x elapsed=0:01:48.65    \nframe=  358 fps=3.3 q=33.0 size=    5120KiB time=00:00:07.16 bitrate=5858.0kbits/s speed=0.0656x elapsed=0:01:49.16    \nframe=  360 fps=3.3 q=33.0 size=    5120KiB time=00:00:07.20 bitrate=5825.4kbits/s speed=0.0656x elapsed=0:01:49.68    \nframe=  362 fps=3.3 q=34.0 size=    5120KiB time=00:00:07.24 bitrate=5793.2kbits/s speed=0.0657x elapsed=0:01:50.26    \nframe=  364 fps=3.3 q=35.0 size=    5120KiB time=00:00:07.28 bitrate=5761.4kbits/s speed=0.0657x elapsed=0:01:50.81    \nframe=  366 fps=3.3 q=36.0 size=    5120KiB time=00:00:07.32 bitrate=5729.9kbits/s speed=0.0657x elapsed=0:01:51.35    \nframe=  368 fps=3.3 q=21.0 size=    5120KiB time=00:00:07.34 bitrate=5714.3kbits/s speed=0.0656x elapsed=0:01:51.90    \nframe=  371 fps=3.3 q=37.0 size=    5120KiB time=00:00:07.42 bitrate=5652.7kbits/s speed=0.066x elapsed=0:01:52.45    \nframe=  374 fps=3.3 q=38.0 size=    5120KiB time=00:00:07.48 bitrate=5607.4kbits/s speed=0.0662x elapsed=0:01:53.00    \nframe=  375 fps=3.3 q=38.0 size=    5120KiB time=00:00:07.50 bitrate=5592.4kbits/s speed=0.0661x elapsed=0:01:53.52    \nframe=  378 fps=3.3 q=34.0 size=    5120KiB time=00:00:07.56 bitrate=5548.0kbits/s speed=0.0663x elapsed=0:01:54.04    \nframe=  381 fps=3.3 q=35.0 size=    5120KiB time=00:00:07.62 bitrate=5504.3kbits/s speed=0.0665x elapsed=0:01:54.56    \nframe=  384 fps=3.3 q=35.0 size=    5120KiB time=00:00:07.68 bitrate=5461.3kbits/s speed=0.0667x elapsed=0:01:55.09    \nframe=  387 fps=3.3 q=37.0 size=    7680KiB time=00:00:07.74 bitrate=8128.5kbits/s speed=0.0669x elapsed=0:01:55.64    \nframe=  390 fps=3.4 q=37.0 size=    7680KiB time=00:00:07.80 bitrate=8066.0kbits/s speed=0.0671x elapsed=0:01:56.16    \nframe=  394 fps=3.4 q=38.0 size=    7680KiB time=00:00:07.88 bitrate=7984.1kbits/s speed=0.0675x elapsed=0:01:56.68    \nframe=  397 fps=3.4 q=36.0 size=    7680KiB time=00:00:07.94 bitrate=7923.7kbits/s speed=0.0677x elapsed=0:01:57.20    \nframe=  400 fps=3.4 q=37.0 size=    7680KiB time=00:00:08.00 bitrate=7864.3kbits/s speed=0.068x elapsed=0:01:57.71    \nframe=  402 fps=3.4 q=26.0 size=    7680KiB time=00:00:08.04 bitrate=7825.2kbits/s speed=0.068x elapsed=0:01:58.24    \nframe=  405 fps=3.4 q=37.0 size=    7680KiB time=00:00:08.10 bitrate=7767.2kbits/s speed=0.0682x elapsed=0:01:58.78    \nframe=  407 fps=3.4 q=38.0 size=    7680KiB time=00:00:08.14 bitrate=7729.1kbits/s speed=0.0682x elapsed=0:01:59.31    \nframe=  411 fps=3.4 q=38.0 size=    7680KiB time=00:00:08.22 bitrate=7653.8kbits/s speed=0.0686x elapsed=0:01:59.84    \nframe=  413 fps=3.4 q=38.0 size=    7680KiB time=00:00:08.26 bitrate=7616.8kbits/s speed=0.0686x elapsed=0:02:00.42    \nframe=  416 fps=3.4 q=38.0 size=    7680KiB time=00:00:08.32 bitrate=7561.8kbits/s speed=0.0688x elapsed=0:02:00.98    \nframe=  419 fps=3.4 q=39.0 size=    7680KiB time=00:00:08.38 bitrate=7507.7kbits/s speed=0.069x elapsed=0:02:01.50    \nframe=  421 fps=3.4 q=39.0 size=    7680KiB time=00:00:08.42 bitrate=7472.0kbits/s speed=0.069x elapsed=0:02:02.06    \nframe=  425 fps=3.5 q=40.0 size=    7680KiB time=00:00:08.48 bitrate=7419.2kbits/s speed=0.0692x elapsed=0:02:02.58    \nframe=  426 fps=3.5 q=24.0 size=    7680KiB time=00:00:08.52 bitrate=7384.3kbits/s speed=0.0692x elapsed=0:02:03.09    \nframe=  428 fps=3.5 q=39.0 size=    7680KiB time=00:00:08.56 bitrate=7349.8kbits/s speed=0.0692x elapsed=0:02:03.62    \nframe=  431 fps=3.5 q=40.0 size=    7680KiB time=00:00:08.62 bitrate=7298.7kbits/s speed=0.0694x elapsed=0:02:04.14    \nframe=  434 fps=3.5 q=41.0 size=    7680KiB time=00:00:08.68 bitrate=7248.2kbits/s speed=0.0696x elapsed=0:02:04.69    \nframe=  436 fps=3.5 q=41.0 size=    7680KiB time=00:00:08.72 bitrate=7215.0kbits/s speed=0.0696x elapsed=0:02:05.24    \nframe=  439 fps=3.5 q=42.0 size=    7680KiB time=00:00:08.78 bitrate=7165.7kbits/s speed=0.0698x elapsed=0:02:05.79    \nframe=  442 fps=3.5 q=43.0 size=    7680KiB time=00:00:08.84 bitrate=7117.0kbits/s speed=0.0699x elapsed=0:02:06.37    \nframe=  445 fps=3.5 q=44.0 size=    7680KiB time=00:00:08.90 bitrate=7069.1kbits/s speed=0.0701x elapsed=0:02:06.89    \nframe=  448 fps=3.5 q=31.0 size=    7680KiB time=00:00:08.96 bitrate=7021.7kbits/s speed=0.0703x elapsed=0:02:07.44    \nframe=  451 fps=3.5 q=41.0 size=    7680KiB time=00:00:09.02 bitrate=6975.0kbits/s speed=0.0705x elapsed=0:02:07.99    \nframe=  453 fps=3.5 q=41.0 size=    7680KiB time=00:00:09.06 bitrate=6944.2kbits/s speed=0.0705x elapsed=0:02:08.52    \nframe=  456 fps=3.5 q=39.0 size=    7680KiB time=00:00:09.12 bitrate=6898.5kbits/s speed=0.0707x elapsed=0:02:09.05    \nframe=  459 fps=3.5 q=39.0 size=    7680KiB time=00:00:09.18 bitrate=6853.4kbits/s speed=0.0708x elapsed=0:02:09.58    \nframe=  461 fps=3.5 q=43.0 size=    7680KiB time=00:00:09.22 bitrate=6823.7kbits/s speed=0.0708x elapsed=0:02:10.19    \nframe=  465 fps=3.6 q=42.0 size=    7680KiB time=00:00:09.30 bitrate=6765.0kbits/s speed=0.0711x elapsed=0:02:10.76    \nframe=  468 fps=3.6 q=42.0 size=    7680KiB time=00:00:09.36 bitrate=6721.6kbits/s speed=0.0713x elapsed=0:02:11.36    \nframe=  470 fps=3.6 q=43.0 size=    7680KiB time=00:00:09.40 bitrate=6693.0kbits/s speed=0.0713x elapsed=0:02:11.90    \nframe=  473 fps=3.6 q=37.0 size=    7680KiB time=00:00:09.46 bitrate=6650.6kbits/s speed=0.0714x elapsed=0:02:12.46    \nframe=  476 fps=3.6 q=39.0 size=    7680KiB time=00:00:09.52 bitrate=6608.7kbits/s speed=0.0716x elapsed=0:02:13.04    \nframe=  476 fps=3.6 q=39.0 size=    7680KiB time=00:00:09.52 bitrate=6608.7kbits/s speed=0.0713x elapsed=0:02:13.57    \nframe=  476 fps=3.5 q=39.0 size=    7680KiB time=00:00:09.52 bitrate=6608.7kbits/s speed=0.071x elapsed=0:02:14.12    \nframe=  476 fps=3.5 q=39.0 size=    7680KiB time=00:00:09.52 bitrate=6608.7kbits/s speed=0.0706x elapsed=0:02:14.75    \nframe=  476 fps=3.5 q=39.0 size=    7680KiB time=00:00:09.52 bitrate=6608.7kbits/s speed=0.0704x elapsed=0:02:15.31    \nframe=  476 fps=3.5 q=39.0 size=    7680KiB time=00:00:09.52 bitrate=6608.7kbits/s speed=0.0701x elapsed=0:02:15.89    \nframe=  476 fps=3.5 q=39.0 size=    7680KiB time=00:00:09.52 bitrate=6608.7kbits/s speed=0.0698x elapsed=0:02:16.44    \nframe=  476 fps=3.5 q=39.0 size=    7680KiB time=00:00:09.52 bitrate=6608.7kbits/s speed=0.0695x elapsed=0:02:17.00    \nframe=  476 fps=3.5 q=39.0 size=    7680KiB time=00:00:09.52 bitrate=6608.7kbits/s speed=0.0692x elapsed=0:02:17.54    \n[out#0/webm @ 0000018455419b80] video:10240KiB audio:0KiB subtitle:0KiB other streams:0KiB global headers:0KiB muxing overhead: 0.039741%\nframe=  500 fps=3.6 q=40.0 Lsize=   10244KiB time=00:00:10.00 bitrate=8391.6kbits/s speed=0.0725x elapsed=0:02:17.87    \n",
  "seconds": 138.40589714050293,
  "probe_out": {}
}